HIERARCHY
ROOT Hips
{
	OFFSET -0.179506 -22.333345 2.821913
	CHANNELS 6 Xposition Yposition Zposition Zrotation Yrotation Xrotation 
	JOINT LeftUpLeg
	{
		OFFSET 6.951974 -9.140623 -0.681533
		CHANNELS 3 Zrotation Yrotation Xrotation
		JOINT LeftLeg
		{
			OFFSET 3.427654 -37.519855 -0.449580
			CHANNELS 3 Zrotation Yrotation Xrotation
			JOINT LeftFoot
			{
				OFFSET -1.359570 -39.796059 -4.369333
				CHANNELS 3 Zrotation Yrotation Xrotation
				JOINT LeftToe
				{
					OFFSET 2.635814 -5.579078 11.928840
					CHANNELS 3 Zrotation Yrotation Xrotation
					End Site
					{
						OFFSET 0.000000 0.000000 0.000000
					}
				}
			}
		}
	}
	JOINT RightUpLeg
	{
		OFFSET -6.767048 -9.052170 -0.431982
		CHANNELS 3 Zrotation Yrotation Xrotation
		JOINT RightLeg
		{
			OFFSET -3.829005 -38.256897 -0.885003
			CHANNELS 3 Zrotation Yrotation Xrotation
			JOINT RightFoot
			{
				OFFSET 1.577377 -39.841461 -4.231180
				CHANNELS 3 Zrotation Yrotation Xrotation
				JOINT RightToe
				{
					OFFSET -2.537174 -4.814398 12.334795
					CHANNELS 3 Zrotation Yrotation Xrotation
					End Site
					{
						OFFSET 0.000000 0.000000 0.000000
					}
				}
			}
		}
	}
	JOINT Spine
	{
		OFFSET -0.253288 10.896323 -2.669631
		CHANNELS 3 Zrotation Yrotation Xrotation
		JOINT Spine1
		{
			OFFSET 0.548704 13.518043 0.109247
			CHANNELS 3 Zrotation Yrotation Xrotation
			JOINT Spine2
			{
				OFFSET 0.145701 5.292222 2.542457
				CHANNELS 3 Zrotation Yrotation Xrotation
				JOINT Neck
				{
					OFFSET -0.277840 21.387037 -4.285703
					CHANNELS 3 Zrotation Yrotation Xrotation
					JOINT Head
					{
						OFFSET 0.515184 6.496960 5.134897
						CHANNELS 3 Zrotation Yrotation Xrotation
						End Site
						{
							OFFSET 0.000000 0.000000 0.000000
						}
					}
				}
				JOINT LeftShoulder
				{
					OFFSET 7.884473 12.174932 -3.408961
					CHANNELS 3 Zrotation Yrotation Xrotation
					JOINT LeftArm
					{
						OFFSET 9.097692 3.046888 -0.886815
						CHANNELS 3 Zrotation Yrotation Xrotation
						JOINT LeftForeArm
						{
							OFFSET 25.961220 -1.277207 -2.745643
							CHANNELS 3 Zrotation Yrotation Xrotation
							JOINT LeftHand
							{
								OFFSET 24.923361 0.898606 -0.117091
								CHANNELS 3 Zrotation Yrotation Xrotation
								End Site
								{
									OFFSET 0.000000 0.000000 0.000000
								}
							}
						}
					}
				}
				JOINT RightShoulder
				{
					OFFSET -8.175920 11.883285 -3.861528
					CHANNELS 3 Zrotation Yrotation Xrotation
					JOINT RightArm
					{
						OFFSET -9.601238 3.255117 -0.914307
						CHANNELS 3 Zrotation Yrotation Xrotation
						JOINT RightForeArm
						{
							OFFSET -25.374195 -1.332924 -2.140099
							CHANNELS 3 Zrotation Yrotation Xrotation
							JOINT RightHand
							{
								OFFSET -25.529810 0.777228 -0.555919
								CHANNELS 3 Zrotation Yrotation Xrotation
								End Site
								{
									OFFSET 0.000000 0.000000 0.000000
								}
							}
						}
					}
				}
			}
		}
	}
}
MOTION
Frames: 12
Frame Time: 0.033333
-6.795316 -44.684776 90.121445 -124.952375 2.674523 83.860536 13.396208 6.314904 2.803540 -4.074251 6.039385 19.949013 0.832429 6.663479 -21.906997 nan nan nan -11.220619 -9.180258 -9.180325 2.213738 -13.790288 21.384160 10.553021 -2.169122 -5.533749 nan nan nan -2.273721 1.170724 9.262488 5.519015 -4.842598 3.056356 3.213676 -0.447182 -1.832595 3.553962 -14.791925 8.968563 1.321775 -19.276997 23.576770 -5.720030 -21.353457 -6.512202 -69.441606 -47.911216 29.486303 104.958118 -81.679839 -80.062476 1.772582 -23.482772 -22.728721 4.988642 14.602026 -6.784399 23.531363 24.854785 -10.493694 -63.811550 40.863912 -51.354858 8.611610 9.272004 -6.583218 
-6.792968 -44.911003 90.164352 -124.745478 2.806114 83.845460 13.325803 6.405295 2.903237 -4.049716 5.888344 19.436846 1.060468 6.703600 -21.876576 nan nan nan -11.432785 -9.255278 -9.461026 2.309129 -13.992677 21.952213 10.942623 -2.052317 -5.148292 nan nan nan -2.309313 1.105604 9.493246 5.555781 -4.857056 2.796270 3.277957 -0.651745 -1.782656 3.565790 -14.736227 8.866426 1.327288 -19.337156 23.752027 -5.945720 -21.366192 -6.383063 -69.372866 -47.672279 29.456851 106.465085 -81.776548 -81.502077 1.624358 -23.585656 -22.739198 5.286393 14.698829 -6.646948 23.654876 24.728237 -10.367634 -64.482027 40.829349 -51.868662 8.810870 9.347944 -6.027852 
-6.795833 -45.134705 90.236160 -124.580925 2.951166 83.876285 13.281049 6.441845 2.956766 -4.035056 5.737141 18.951060 1.269982 6.748156 -21.708835 nan nan nan -11.630244 -9.314819 -9.774338 2.431343 -14.213959 22.461428 11.356156 -1.924687 -4.609169 nan nan nan -2.324022 0.984566 9.789081 5.619847 -4.892675 2.224484 3.265706 -0.673326 -1.597500 3.611874 -14.736102 8.897633 1.439407 -19.412771 23.845353 -6.256393 -21.352964 -6.176327 -69.364035 -47.420459 29.503315 107.783779 -81.946658 -82.804447 1.621064 -23.695134 -22.746900 5.749531 14.717575 -6.437376 23.740668 24.603503 -10.251081 -65.194943 40.889364 -52.355942 8.859357 9.374976 -5.340965 
-6.787508 -45.358437 90.288628 -124.519698 3.110887 83.705601 13.346048 6.512967 3.214014 -4.064563 5.606276 18.553077 1.422497 6.737712 -21.568969 nan nan nan -11.852301 -9.282020 -9.887446 2.589467 -14.393581 22.955773 11.820503 -1.730088 -4.088252 nan nan nan -2.373386 1.058468 10.019757 5.728324 -4.897328 2.277493 3.377291 -0.807617 -1.584802 3.688375 -14.774221 8.813006 1.380837 -19.504309 23.692065 -6.506465 -21.383416 -6.113343 -69.412895 -47.250093 29.539185 108.946893 -82.099714 -83.939261 1.826719 -23.574127 -22.350849 5.935086 14.755890 -6.378759 23.854112 24.511600 -10.196359 -65.775240 40.990054 -52.832794 8.781942 9.286100 -5.122122 
-6.747204 -45.588173 90.341095 -124.553745 3.256290 83.554559 13.414951 6.616283 3.393564 -4.095338 5.509236 18.291624 1.506432 6.684203 -21.494589 nan nan nan -12.015392 -9.204488 -10.136873 2.685902 -14.446508 23.552892 12.171245 -1.545850 -3.735044 nan nan nan -2.407767 0.993469 10.355969 5.800982 -4.891693 2.214183 3.403203 -0.760185 -1.601347 3.779998 -14.845246 8.653474 1.220651 -19.543750 23.687117 -6.724098 -21.232723 -6.063907 -69.529529 -47.073490 29.687319 110.417302 -82.316957 -85.283450 2.227274 -23.408415 -21.927293 6.164418 14.730495 -6.347418 24.093718 24.507345 -10.028171 -66.345262 41.091519 -53.288536 8.636247 9.297131 -5.092841 
-6.685913 -45.821232 90.390503 -124.568487 3.396737 83.499018 13.515501 6.691919 3.407756 -4.194557 5.423817 18.131583 1.564531 6.605824 -21.437635 nan nan nan -12.134267 -9.135503 -10.562088 2.751858 -14.482221 24.262745 12.292509 -1.471154 -3.540346 nan nan nan -2.381086 0.838440 10.660660 5.814267 -4.821422 2.030358 3.292422 -0.643090 -1.544660 3.938833 -14.853677 8.327037 1.186108 -19.701346 23.808245 -6.921585 -20.932498 -6.067893 -69.773863 -46.996886 29.979456 111.501544 -82.614986 -86.529117 2.362960 -23.334565 -22.338681 6.464434 14.521879 -6.404424 24.542899 24.546622 -9.682924 -67.082707 41.199440 -53.932473 8.532305 9.281800 -4.994335 
-6.657039 -46.030766 90.437996 -124.577907 3.525527 83.374460 13.648106 6.701643 3.542554 -4.374230 5.273449 17.961678 1.602874 6.511157 -21.398522 nan nan nan -12.299607 -9.058037 -10.851883 2.821469 -14.579077 24.954047 12.479251 -1.426597 -3.402703 nan nan nan -2.338638 0.681497 10.880313 5.786258 -4.750976 1.956941 3.136495 -0.535834 -1.407306 4.087563 -14.739490 7.928007 1.200053 -19.944357 24.015819 -7.014526 -20.615176 -6.103905 -70.015869 -46.956609 30.191054 111.985928 -82.881999 -87.353132 2.026040 -23.537082 -22.953745 6.730422 14.313045 -6.434365 25.055495 24.525787 -9.353774 -67.938454 41.256610 -54.783335 8.845301 9.178772 -4.970765 
-6.635996 -46.219978 90.481453 -124.619069 3.626465 83.264328 13.731248 6.706356 3.663063 -4.538724 5.134758 17.824772 1.666065 6.527150 -21.386263 nan nan nan -12.493529 -8.911299 -11.128575 2.967798 -14.577676 25.600995 12.743896 -1.380481 -3.346809 nan nan nan -2.387379 0.737379 10.935734 5.794109 -4.677672 2.089333 3.124808 -0.614615 -1.353677 4.164254 -14.537021 7.679976 1.210146 -20.058614 24.039397 -7.077000 -20.705456 -5.959666 -69.911781 -46.712322 30.074262 113.360318 -82.822910 -88.723623 1.902557 -23.774005 -22.984940 7.037067 14.325850 -6.381556 25.313877 24.295375 -9.161869 -68.796115 41.319203 -55.521672 9.120809 9.067375 -4.992545 
-6.609829 -46.396679 90.526955 -124.657364 3.686643 83.157092 13.749794 6.760070 3.815576 -4.667655 5.007706 17.596459 1.721256 6.594889 -21.368936 nan nan nan -12.683203 -8.713802 -11.337976 3.144542 -14.469085 26.101297 12.938883 -1.218484 -3.523783 nan nan nan -2.521103 1.043425 11.023038 5.825929 -4.460715 2.219019 3.300135 -0.966955 -1.432471 4.124584 -14.437205 7.590070 1.158120 -20.137089 23.895116 -7.290369 -21.094224 -5.715614 -69.565448 -46.356351 29.780090 115.195919 -82.578748 -90.461960 1.836600 -23.767152 -22.923148 7.249871 14.359308 -6.326505 25.516363 23.878748 -9.017879 -69.572563 41.465959 -56.191231 9.179221 9.009760 -5.176316 
-6.592854 -46.543468 90.567284 -124.657467 3.710961 83.071690 13.702982 6.842269 4.003158 -4.697691 4.885277 17.269565 1.715649 6.592638 -21.320505 nan nan nan -12.840308 -8.556394 -11.468346 3.169948 -14.396009 26.496879 13.165970 -0.725966 -3.975785 nan nan nan -2.598569 1.006668 11.215526 5.781179 -4.477055 2.073172 3.211121 -0.850563 -1.445786 4.115889 -14.299653 7.619413 1.106448 -20.389403 23.932457 -7.502047 -20.962624 -5.581708 -69.483006 -46.087207 29.746490 116.735666 -82.695957 -92.100197 1.818411 -23.731651 -22.993812 7.703255 14.244188 -6.137966 25.861071 23.658758 -8.797121 -70.358399 41.676931 -56.890179 9.181914 9.083186 -5.435488 
-6.577630 -46.670071 90.579643 -124.547415 3.744476 82.988165 13.635828 6.815097 4.216119 -4.625574 4.837110 16.871167 1.738616 6.476187 -21.208548 nan nan nan -12.946282 -8.440217 -11.483841 3.071255 -14.394988 26.776748 13.305957 -0.144202 -4.610390 nan nan nan -2.711453 0.871649 11.253759 5.804796 -4.450678 2.017326 3.033926 -0.655781 -1.268500 4.233321 -14.127545 7.279970 0.945082 -20.734589 24.212318 -7.628455 -20.304001 -5.581376 -70.247912 -46.175731 30.431451 115.367101 -83.083480 -90.965663 1.652971 -24.002745 -23.080728 8.153821 13.727077 -6.076904 26.266797 23.811736 -8.480878 -71.048188 41.867233 -57.448192 9.168910 9.208510 -5.602691 
-6.567457 -46.757885 90.593742 -124.346010 3.779232 82.953959 13.553136 6.800945 4.378869 -4.572161 4.553522 16.425306 1.770344 6.573485 -21.029617 nan nan nan -12.977329 -8.462678 -11.391147 3.010281 -14.168014 26.782863 13.193775 0.091446 -5.362098 nan nan nan -2.952043 0.764900 11.242404 5.858599 -4.630440 2.010889 3.017359 -0.528039 -1.215685 4.292986 -13.913789 7.148554 0.898175 -20.930958 24.295731 -7.743680 -20.151876 -5.514121 -70.248473 -45.818865 30.431349 117.788739 -83.219833 -93.368358 1.604598 -23.863016 -22.898390 8.533081 13.623394 -5.964680 26.628595 23.575725 -8.265446 -71.806007 42.101264 -58.016119 9.205179 9.182367 -5.621976 
